<?xml version="1.0" standalone="no"?>
<!DOCTYPE svg PUBLIC "-//W3C//DTD SVG 20010904//EN"
 "http://www.w3.org/TR/2001/REC-SVG-20010904/DTD/svg10.dtd">
<svg version="1.0" xmlns="http://www.w3.org/2000/svg"
 width="1000.000000pt" height="1000.000000pt" viewBox="0 0 1000.000000 1000.000000"
 preserveAspectRatio="xMidYMid meet">
<g transform="translate(0.000000,1000.000000) scale(0.100000,-0.100000)"
fill="#000000" stroke="none">
<path d="M1887 9854 c-557 -81 -1059 -399 -1376 -873 -151 -226 -245 -457
-303 -744 l-23 -112 0 -3105 0 -3105 23 -112 c83 -411 252 -737 532 -1027 292
-302 642 -491 1073 -578 l112 -23 3105 0 3105 0 112 23 c431 87 781 276 1073
578 280 290 449 616 532 1027 l23 112 0 3105 0 3105 -23 112 c-87 431 -276
781 -578 1073 -254 245 -552 413 -885 499 -252 65 -33 61 -3372 60 -2555 -1
-3047 -3 -3130 -15z m4243 -1149 c506 -70 898 -262 1177 -578 401 -453 565
-1181 477 -2107 -94 -991 -456 -1982 -972 -2664 -148 -196 -290 -346 -515
-547 l-38 -34 53 -65 c158 -198 271 -299 420 -376 141 -72 212 -87 417 -88
l174 -1 54 -69 c44 -57 53 -74 48 -95 -10 -41 -129 -284 -165 -338 -65 -95
-143 -185 -208 -239 -76 -63 -217 -135 -309 -158 -247 -63 -574 -31 -797 78
-261 127 -426 335 -571 719 -29 76 -55 140 -58 143 -3 3 -45 -3 -94 -15 -173
-40 -285 -53 -525 -58 -385 -9 -614 31 -866 152 -150 72 -248 141 -362 255
-226 226 -365 534 -427 945 -22 151 -25 682 -5 870 37 338 90 637 168 948 24
97 44 180 44 184 0 4 -11 -4 -25 -17 -24 -22 -28 -23 -137 -16 -449 27 -715
209 -810 554 -32 113 -31 393 0 538 60 278 202 563 405 813 34 42 116 130 182
197 571 573 1467 972 2400 1068 225 24 231 24 500 20 155 -2 294 -9 365 -19z"/>
<path d="M5240 8109 c-218 -23 -498 -89 -691 -164 -204 -80 -443 -217 -596
-340 -91 -73 -249 -232 -318 -320 -236 -301 -364 -640 -396 -1048 -9 -109 -9
-175 -1 -255 11 -103 45 -242 60 -242 4 0 20 42 35 93 83 268 244 652 378 902
179 331 327 535 553 760 187 187 295 268 481 359 229 113 354 145 600 153 183
6 326 -9 451 -48 l62 -19 7 -78 c3 -42 9 -86 11 -97 4 -17 -12 -34 -74 -83
-500 -387 -1046 -1655 -1251 -2902 -56 -342 -89 -757 -75 -948 6 -89 7 -93 28
-88 170 43 474 54 630 23 109 -22 220 -62 323 -116 l78 -42 25 30 c14 16 54
76 89 133 398 639 688 1533 798 2463 26 217 26 898 0 1065 -59 392 -170 596
-384 712 -84 45 -210 82 -328 97 -103 13 -370 12 -495 0z"/>
<path d="M4647 3250 l-38 -5 26 -35 c32 -44 97 -88 142 -96 40 -8 190 0 200 9
12 12 -46 63 -103 91 -59 29 -160 45 -227 36z"/>
</g>
</svg>
